{"title":"Yeh Hai Aashiqui - Indian Telefilm - HDTVRip 720p [ TaRa ].mkv","uid":15139139,"size":272130656,"categoryP":"video","categoryS":"hd___tv_shows","magnet":"?xt=urn:btih:8f301586ff957b1d1dd8f0e25b5e3bbf395211c1&amp;dn=Yeh+Hai+Aashiqui+-+Indian+Telefilm+-+HDTVRip+720p+%5B+TaRa+%5D.mkv&amp;tr=udp%3A%2F%2Ftracker.leechers-paradise.org%3A6969&amp;tr=udp%3A%2F%2Fzer0day.ch%3A1337&amp;tr=udp%3A%2F%2Fopen.demonii.com%3A1337&amp;tr=udp%3A%2F%2Ftracker.coppersurfer.tk%3A6969&amp;tr=udp%3A%2F%2Fexodus.desync.com%3A6969","seeders":0,"leechers":1,"uploader":"MdTaRa","files":1,"time":1467189808,"description":"==================================================================\r\nGeneral\r\nComplete name               : Yeh Hai Aashiqui - Indian Telefilm - HDTVRip 720p [ TaRa ].mkv\r\nFormat                      : Matroska\r\nFormat version              : Version 4 / Version 2\r\nFile size                   : 260 MiB\r\nDuration                    : 41mn 1s\r\nOverall bit rate            : 884 Kbps\r\n===================================================================\r\nVideo\r\nID                          : 1\r\nFormat                      : AVC\r\nFormat/Info                 : Advanced Video Codec\r\nFormat profile              :   \r\nFormat settings, CABAC      : Yes\r\nFormat settings, ReFrames   : 4 frames\r\nCodec ID                    : V_MPEG4/ISO/AVC\r\nDuration                    : 41mn 1s\r\nBit rate                    : 762 Kbps\r\nWidth                       : 1 280 pixels\r\nHeight                      : 720 pixels\r\nDisplay aspect ratio        : 16:9\r\nFrame rate mode             : Constant\r\nFrame rate                  : 24.000 fps\r\nColor space                 : YUV\r\nChroma subsampling          : 4:2:0\r\nBit depth                   : 8 bits\r\nScan type                   : Progressive\r\nBits/(Pixel*Frame)          : 0.034\r\nStream size                 : 224 MiB (86%)\r\nTitle                       : :::::__ TaRa  __:::::\r\nLanguage                    : Hindi\r\nDefault                     : Yes\r\nForced                      : No\r\n===================================================================\r\nAudio\r\nID                          : 2\r\nFormat                      : AAC\r\nFormat/Info                 : Advanced Audio Codec\r\nFormat profile              : LC\r\nCodec ID                    : A_AAC\r\nDuration                    : 41mn 1s\r\nBit rate                    : 120 Kbps\r\nChannel(s)                  : 2 channels\r\nChannel positions           : Front: L R\r\nSampling rate               : 44.1 KHz\r\nFrame rate                  : 43.066 fps (1024 spf)\r\nCompression mode            : Lossy\r\nStream size                 : 35.3 MiB (14%)\r\nTitle                       : :::::__ TaRa  __:::::\r\nLanguage                    : Hindi\r\nDefault                     : Yes\r\nForced                      : No\r\n===================================================================\r\n \nhttp://picoolio.net/image/I898","torrent":{"xt":"urn:btih:8f301586ff957b1d1dd8f0e25b5e3bbf395211c1","amp;dn":"Yeh+Hai+Aashiqui+-+Indian+Telefilm+-+HDTVRip+720p+%5B+TaRa+%5D.mkv","amp;tr":["udp%3A%2F%2Ftracker.leechers-paradise.org%3A6969","udp%3A%2F%2Fzer0day.ch%3A1337","udp%3A%2F%2Fopen.demonii.com%3A1337","udp%3A%2F%2Ftracker.coppersurfer.tk%3A6969","udp%3A%2F%2Fexodus.desync.com%3A6969"],"infoHash":"8f301586ff957b1d1dd8f0e25b5e3bbf395211c1","infoHashBuffer":{"type":"Buffer","data":[143,48,21,134,255,149,123,29,29,216,240,226,91,94,59,191,57,82,17,193]},"announce":[],"urlList":[]}}